<svg id="Calque_1" data-name="Calque 1" xmlns="http://www.w3.org/2000/svg" viewBox="0 0 100 100"><defs><style>.cls-1{fill:#f1f2f2;}</style></defs><title>essentiel</title><path class="cls-1" d="M82.25,27.27H67.43V40.84a9,9,0,0,1-4-1.24,11.55,11.55,0,0,0-11.24,0,9,9,0,0,1-4.83,1.27,8.81,8.81,0,0,1-4.62-1.16V27.27H18.6a3.41,3.41,0,0,0-3.41,3.41v51A9.82,9.82,0,0,0,25,91.53H59.33a9.82,9.82,0,0,0,9.81-9.81V29H82.25a5.55,5.55,0,0,1,5.55,5.55v14a5.55,5.55,0,0,1-5.55,5.55H74.57v1.7h7.68a7.26,7.26,0,0,0,7.25-7.25v-14A7.26,7.26,0,0,0,82.25,27.27ZM29.92,59.79c0-6.45,8.15-10,11.15-11.14v7L30.23,63.1A18.48,18.48,0,0,1,29.92,59.79Zm11.15-2.08V66l-7.69,5.29a27.9,27.9,0,0,1-2.74-6.44Zm0,10.4v13a47.07,47.07,0,0,1-6.8-8.27Zm1.7,0,6.8,4.68a47.18,47.18,0,0,1-6.8,8.27v-13Zm7.68,3.22L42.77,66V57.71l10.43,7.17A27.92,27.92,0,0,1,50.45,71.33ZM53.6,63.1L42.77,55.64v-7c3,1.1,11.15,4.7,11.15,11.14A18.46,18.46,0,0,1,53.6,63.1ZM18.6,29H41.06v9.9a10.37,10.37,0,0,0-4.13-.74,10.56,10.56,0,0,0-5.62,1.46,9,9,0,0,1-4.83,1.27,9,9,0,0,1-4.83-1.27,10.49,10.49,0,0,0-4.77-1.43V30.69A1.71,1.71,0,0,1,18.6,29ZM59.33,89.83H25a8.11,8.11,0,0,1-8.1-8.1V39.87a9,9,0,0,1,4,1.24,10.56,10.56,0,0,0,5.62,1.46,10.56,10.56,0,0,0,5.62-1.46,9,9,0,0,1,4.83-1.27,8.61,8.61,0,0,1,4.13.91v6.09c-2.66.89-12.86,4.84-12.85,13,0,12.72,12.62,23.41,13.16,23.86l0.55,0.46,0.55-.46C43,83.2,55.61,72.52,55.62,59.79c0-8.12-10.19-12.07-12.85-13V41.61a10.19,10.19,0,0,0,4.62,1A10.57,10.57,0,0,0,53,41.11a9.85,9.85,0,0,1,9.66,0,10.5,10.5,0,0,0,4.77,1.43V81.72A8.11,8.11,0,0,1,59.33,89.83Z"/><rect class="cls-1" x="26.92" y="8.08" width="1.7" height="14.64"/><rect class="cls-1" x="55.21" y="8.08" width="1.7" height="14.64"/><rect class="cls-1" x="41.06" y="1.4" width="1.7" height="21.32"/><rect class="cls-1" x="10.85" y="96.9" width="64.26" height="1.7"/></svg>