<svg id="Calque_1" data-name="Calque 1" xmlns="http://www.w3.org/2000/svg" xmlns:xlink="http://www.w3.org/1999/xlink" viewBox="0 0 461.26 600"><defs><style>.cls-1{fill:none;}.cls-2{fill:#3d3d3d;}.cls-3{fill:#808081;}.cls-4{fill:url(#Dégradé_sans_nom_21);}.cls-5{fill:#9a9999;}</style><linearGradient id="Dégradé_sans_nom_21" x1="138.94" y1="149.48" x2="326.42" y2="336.96" gradientUnits="userSpaceOnUse"><stop offset="0" stop-color="#09b9e6"/><stop offset="0.19" stop-color="#12b8d9"/><stop offset="0.54" stop-color="#2ab7b6"/><stop offset="1" stop-color="#51b57f"/></linearGradient></defs><title>logo</title><path class="cls-1" d="M264.31,520.81a4,4,0,0,0-3.13,1.19,4.57,4.57,0,0,0-1,3.13v62.49a4.67,4.67,0,0,0,1,3.13,4.77,4.77,0,0,0,6.3,0,4.58,4.58,0,0,0,1-3.13V525.13a4.67,4.67,0,0,0-1-3.13A3.93,3.93,0,0,0,264.31,520.81Z"/><path class="cls-1" d="M79.8,520.81A4,4,0,0,0,76.67,522a4.57,4.57,0,0,0-1,3.13v62.49a4.67,4.67,0,0,0,1,3.13,4.77,4.77,0,0,0,6.3,0,4.58,4.58,0,0,0,1-3.13V525.13A4.67,4.67,0,0,0,83,522,3.93,3.93,0,0,0,79.8,520.81Z"/><polygon class="cls-2" points="123.99 306.01 222.79 269.02 123.99 232.06 123.99 306.01"/><path class="cls-2" d="M0,0V461.26H461.26V0H0ZM432.31,432.31H28.95V28.95H432.31V432.31Z"/><polygon class="cls-2" points="296.74 162.94 237.26 76.33 237.44 183.5 270.04 203.98 296.74 162.94"/><polygon class="cls-2" points="273.3 214.38 272.58 215.49 271.46 214.79 237.46 193.43 237.59 263.48 309.68 236.52 311.51 235.83 311.49 237.79 311.44 243.89 311.43 244.81 310.57 245.13 237.6 272.45 237.78 377.04 340.64 309.8 340.64 226.86 301.89 170.44 273.3 214.38"/><polygon class="cls-2" points="186.91 161.66 191.38 154.54 229.03 178.22 228.85 76.16 126.32 223.96 229.18 262.44 229.05 188.15 186.91 161.66"/><path class="cls-2" d="M430.93,30.33H30.33v400.6h400.6V30.33ZM349,224.67v89.67l-0.61.4-111,72.56v27.44h-8.1L229.2,275.6,129.06,313.09,197.3,359.2l0.59,0.4v0.72l0,6.8v2.5l-2.08-1.4-79.58-53.48-0.59-.4V224.69l0.24-.35L231.94,57l1.11-1.6,1.1,1.6L348.81,223.91l0.24,0.34v0.42Z"/><path class="cls-3" d="M28.95,432.31H432.31V28.95H28.95V432.31Zm1.38-402h400.6v400.6H30.33V30.33Z"/><path class="cls-2" d="M234.15,57l-1.1-1.6L231.94,57,115.83,224.35l-0.24.35v89.66l0.59,0.4,79.58,53.48,2.08,1.4v-2.5l0-6.8V359.6l-0.59-.4-68.24-46.12L229.2,275.6l0.16,139.15h8.1V387.3l111-72.56,0.61-.4V224.25l-0.24-.34ZM124,306V232.06l98.8,37Zm2.33-82L228.85,76.16,229,178.22l-37.65-23.67-4.47,7.12L229,188.15l0.13,74.29ZM237.45,183.5L237.26,76.34l59.48,86.61L270,204ZM340.64,309.8L237.78,377,237.6,272.45l73-27.32,0.86-.32v-0.92l0.05-6.1,0-2-1.83.68-72.1,27-0.12-70,34,21.35,1.12,0.7,0.72-1.11,28.59-43.94,38.75,56.42V309.8Z"/><path class="cls-4" d="M234.15,57l-1.1-1.6L231.94,57,115.83,224.35l-0.24.35v89.66l0.59,0.4,79.58,53.48,2.08,1.4v-2.5l0-6.8V359.6l-0.59-.4-68.24-46.12L229.2,275.6l0.16,139.15h8.1V387.3l111-72.56,0.61-.4V224.25l-0.24-.34ZM124,306V232.06l98.8,37Zm2.33-82L228.85,76.16,229,178.22l-37.65-23.67-4.47,7.12L229,188.15l0.13,74.29ZM237.45,183.5L237.26,76.34l59.48,86.61L270,204ZM340.64,309.8L237.78,377,237.6,272.45l73-27.32,0.86-.32v-0.92l0.05-6.1,0-2-1.83.68-72.1,27-0.12-70,34,21.35,1.12,0.7,0.72-1.11,28.59-43.94,38.75,56.42V309.8Z"/><path class="cls-5" d="M28.55,513.9h-4a4.42,4.42,0,0,0-3,1,3.36,3.36,0,0,0-1.15,2.66l0.72,45.57q-0.72-3.09-1.62-7.34t-1.87-9q-1-4.71-1.91-9.47l-1.73-8.78q-0.79-4-1.3-7T12,517.43a3.7,3.7,0,0,0-1.26-2.56,4.28,4.28,0,0,0-2.92-1h-4a1.32,1.32,0,0,0-1.08.43,1.62,1.62,0,0,0-.36,1.08v81.92a1.62,1.62,0,0,0,.36,1.08,1.32,1.32,0,0,0,1.08.43h4A4.06,4.06,0,0,0,11,597.66a4.12,4.12,0,0,0,1-3.06l-0.72-42.55q0.58,3.6,1.48,8T14.65,569q1,4.53,2,8.89t1.84,8q0.83,3.64,1.37,6.23a21.5,21.5,0,0,1,.54,3.46,3.84,3.84,0,0,0,1.22,2.41,4.18,4.18,0,0,0,2.88.9h4a1.33,1.33,0,0,0,1.08-.43,1.63,1.63,0,0,0,.36-1.08V515.41a1.63,1.63,0,0,0-.36-1.08A1.33,1.33,0,0,0,28.55,513.9Z"/><path class="cls-5" d="M89.85,516.1a12.71,12.71,0,0,0-4.39-2.48,17.58,17.58,0,0,0-5.65-.86q-6.55,0-10.19,3.31A11.65,11.65,0,0,0,66,525.13v62.49a13,13,0,0,0,1,5.15,10.81,10.81,0,0,0,2.81,3.89,12.75,12.75,0,0,0,4.36,2.48,17.46,17.46,0,0,0,5.69.86q6.55,0,10.19-3.31a11.65,11.65,0,0,0,3.64-9.07V525.13a13,13,0,0,0-1-5.15A10.81,10.81,0,0,0,89.85,516.1ZM84,587.62a4.58,4.58,0,0,1-1,3.13,4.77,4.77,0,0,1-6.3,0,4.67,4.67,0,0,1-1-3.13V525.13a4.57,4.57,0,0,1,1-3.13,4.77,4.77,0,0,1,6.3,0,4.67,4.67,0,0,1,1,3.13v62.49Z"/><path class="cls-5" d="M155.82,513.9h-4a4.42,4.42,0,0,0-3,1,3.36,3.36,0,0,0-1.15,2.66v70a4.57,4.57,0,0,1-1,3.13,4.77,4.77,0,0,1-6.3,0,4.67,4.67,0,0,1-1-3.13v-70a3.37,3.37,0,0,0-1.15-2.66,4.43,4.43,0,0,0-3-1h-4a1.32,1.32,0,0,0-1.08.43,1.62,1.62,0,0,0-.36,1.08v72.21a13,13,0,0,0,1,5.15,10.81,10.81,0,0,0,2.81,3.89,12.75,12.75,0,0,0,4.36,2.48,17.46,17.46,0,0,0,5.69.86q6.55,0,10.19-3.31a11.65,11.65,0,0,0,3.64-9.07V515.41a1.63,1.63,0,0,0-.36-1.08A1.33,1.33,0,0,0,155.82,513.9Z"/><path class="cls-5" d="M217.23,513.9H213.7a4.37,4.37,0,0,0-3,1,3.78,3.78,0,0,0-1.33,2.56l-3.74,60.76L202,517.5a3.79,3.79,0,0,0-1.33-2.56,4.37,4.37,0,0,0-3-1h-3.53a1.79,1.79,0,0,0-1.48.58,1.61,1.61,0,0,0-.4,1.22l7.92,81.71a1.9,1.9,0,0,0,.43,1,1.24,1.24,0,0,0,1,.43h8.14a1.24,1.24,0,0,0,1-.43,1.92,1.92,0,0,0,.43-1l7.92-81.71a1.62,1.62,0,0,0-.4-1.22A1.8,1.8,0,0,0,217.23,513.9Z"/><path class="cls-5" d="M274.35,516.1a12.71,12.71,0,0,0-4.39-2.48,17.58,17.58,0,0,0-5.65-.86q-6.55,0-10.19,3.31a11.65,11.65,0,0,0-3.64,9.07v62.49a13,13,0,0,0,1,5.15,10.81,10.81,0,0,0,2.81,3.89,12.75,12.75,0,0,0,4.36,2.48,17.46,17.46,0,0,0,5.69.86q6.55,0,10.19-3.31a11.65,11.65,0,0,0,3.64-9.07V525.13a13,13,0,0,0-1-5.15A10.81,10.81,0,0,0,274.35,516.1Zm-5.87,71.52a4.58,4.58,0,0,1-1,3.13,4.77,4.77,0,0,1-6.3,0,4.67,4.67,0,0,1-1-3.13V525.13a4.57,4.57,0,0,1,1-3.13,4.77,4.77,0,0,1,6.3,0,4.67,4.67,0,0,1,1,3.13v62.49Z"/><path class="cls-5" d="M341.62,498.06H318.73a1.63,1.63,0,0,0-1.08.36,1.33,1.33,0,0,0-.43,1.08v2.45a4.42,4.42,0,0,0,1,3,3.37,3.37,0,0,0,2.66,1.15h4.46v90.13a2.58,2.58,0,0,0,2.59,2.59h4.46a2.58,2.58,0,0,0,2.59-2.59V506.12h4.46a3.37,3.37,0,0,0,2.66-1.15,4.43,4.43,0,0,0,1-3V499.5a1.33,1.33,0,0,0-.43-1.08A1.63,1.63,0,0,0,341.62,498.06Z"/><path class="cls-5" d="M397.7,513.9h-4a4.42,4.42,0,0,0-3,1,3.36,3.36,0,0,0-1.15,2.66v34.56h-8.35V517.57a3.37,3.37,0,0,0-1.15-2.66,4.42,4.42,0,0,0-3-1h-4a1.32,1.32,0,0,0-1.08.43,1.62,1.62,0,0,0-.36,1.08v81.92a1.62,1.62,0,0,0,.36,1.08,1.32,1.32,0,0,0,1.08.43h4a4,4,0,0,0,3.13-1.19,4.46,4.46,0,0,0,1-3.06V560.19h8.35V594.6a4.46,4.46,0,0,0,1,3.06,4,4,0,0,0,3.13,1.19h4a1.33,1.33,0,0,0,1.08-.43,1.63,1.63,0,0,0,.36-1.08V515.41a1.63,1.63,0,0,0-.36-1.08A1.33,1.33,0,0,0,397.7,513.9Z"/><path class="cls-5" d="M455.79,513.9H436.57a1.32,1.32,0,0,0-1.08.43,1.62,1.62,0,0,0-.36,1.08v81.92a1.62,1.62,0,0,0,.36,1.08,1.32,1.32,0,0,0,1.08.43h19.22a1.63,1.63,0,0,0,1.08-.36,1.33,1.33,0,0,0,.43-1.08V595a4.43,4.43,0,0,0-1-3,3.37,3.37,0,0,0-2.66-1.15h-8.85V560.91h7.41a3.37,3.37,0,0,0,2.66-1.15,4.42,4.42,0,0,0,1-3v-2.45a1.33,1.33,0,0,0-.43-1.08,1.63,1.63,0,0,0-1.08-.36h-9.57V522h8.85a3.37,3.37,0,0,0,2.66-1.15,4.43,4.43,0,0,0,1-3v-2.45a1.33,1.33,0,0,0-.43-1.08A1.64,1.64,0,0,0,455.79,513.9Z"/><path class="cls-5" d="M444.64,509.15a3.14,3.14,0,0,0,2.7-1.12,13.79,13.79,0,0,0,1.48-2.56L454,492.73a2.48,2.48,0,0,0-.11-2.56,2.94,2.94,0,0,0-2.63-1.11h-3.6a1.81,1.81,0,0,0-1.22.43,1.94,1.94,0,0,0-.65,1.08l-3.6,17.06a1.09,1.09,0,0,0,.29,1.08,1.56,1.56,0,0,0,1.15.43h1Z"/></svg>