<svg id="Calque_1" data-name="Calque 1" xmlns="http://www.w3.org/2000/svg" viewBox="0 0 100 100"><defs><style>.cls-1{fill:#f1f2f2;}</style></defs><title>nomade</title><path class="cls-1" d="M68.6,16.28A32.9,32.9,0,0,0,51.25,9.7V3.35H49.51V9.7a32.94,32.94,0,0,0-17.36,6.58A25.87,25.87,0,0,0,21.43,37.5c0,14.32,7.74,27.54,14.23,36.11,1.28,1.7,2.57,3.29,3.83,4.75,0.46,0.54.91,1.07,1.36,1.57,0.69,0.76,1.35,1.5,2,2.17s1,1,1.45,1.52c3.23,3.32,5.5,5.23,5.54,5.26l0.56,0.46,0.56-.46s2.31-1.95,5.54-5.26c0.46-.48.95-1,1.45-1.52s1.3-1.41,2-2.17c0.44-.51.9-1,1.35-1.57,1.26-1.46,2.55-3.05,3.84-4.75C71.59,65,79.33,51.83,79.34,37.5A25.86,25.86,0,0,0,68.6,16.28ZM51.25,22.92A17.32,17.32,0,0,1,66.79,45.78L51.25,35.1V22.92Zm0,14.29L66.12,47.44A17.32,17.32,0,0,1,51.25,57.53V37.21ZM49.51,35.1L34,45.78A17.31,17.31,0,0,1,49.51,22.92V35.1ZM23.17,37.5a24.18,24.18,0,0,1,10-19.83,31.15,31.15,0,0,1,16.3-6.23v9.74a19.09,19.09,0,0,0-18.19,19,18.78,18.78,0,0,0,1.17,6.58l-6.91,4.76A44.87,44.87,0,0,1,23.17,37.5Zm3,15.77,4.65-3.2,2.35-1.62,1.46-1,3.76-2.59,11.11-7.64V57.53A17.23,17.23,0,0,1,37.89,52.2l-1.17,1.3a19,19,0,0,0,12.8,5.78V64.5L37.33,72.89A77.19,77.19,0,0,1,26.18,53.27Zm23.33,33c-0.76-.7-1.79-1.67-3-2.87L45,81.82c-0.61-.65-1.26-1.34-1.93-2.08-0.46-.51-0.94-1-1.41-1.59-1.05-1.2-2.14-2.5-3.24-3.88l11.11-7.65V86.28Zm9.65-8.12-1.42,1.59c-0.68.74-1.33,1.43-2,2.08s-1.05,1.09-1.54,1.58c-1.21,1.21-2.24,2.18-3,2.87V66.62l11.13,7.67C61.29,75.67,60.21,77,59.17,78.16Zm4.58-5.63-0.29.38-12.2-8.4V59.27A19.12,19.12,0,0,0,67.59,48.45l7,4.81A76.67,76.67,0,0,1,63.75,72.53Zm4.53-25.72a19.06,19.06,0,0,0-17-25.62V11.44a31.13,31.13,0,0,1,16.3,6.23,24.16,24.16,0,0,1,10,19.83,44.69,44.69,0,0,1-2.42,14.06Z"/><path class="cls-1" d="M67,87.07c0,3.62-8.34,5.51-16.59,5.51s-16.59-1.89-16.59-5.51c0-2.48,3.92-4.15,9-5,0.51,0.54,1,1,1.45,1.52-5.5.7-8.79,2.27-8.79,3.44,0,1.55,5.8,3.8,14.88,3.8s14.88-2.25,14.88-3.8c0-1.17-3.28-2.74-8.78-3.44,0.46-.48.95-1,1.45-1.52C63.06,82.92,67,84.59,67,87.07Z"/><path class="cls-1" d="M82.21,87.81c0,6.51-16.4,10-31.83,10s-31.83-3.51-31.83-10c0-5,9.55-8.19,20.93-9.44,0.46,0.54.91,1.07,1.36,1.57-12.49,1.21-20.58,4.68-20.58,7.87,0,3.93,12.37,8.32,30.12,8.32S80.5,91.74,80.5,87.81c0-3.19-8.09-6.66-20.58-7.87,0.44-.51.9-1,1.35-1.57C72.66,79.61,82.21,82.83,82.21,87.81Z"/></svg>