<svg id="Calque_1" data-name="Calque 1" xmlns="http://www.w3.org/2000/svg" viewBox="0 0 529.65 103.34"><defs><style>.cls-1{fill:#f1f2f2;}</style></defs><title>royau-the</title><path class="cls-1" d="M-367.15,20H-382V33.55a9,9,0,0,1-4-1.24,10.57,10.57,0,0,0-5.62-1.46,10.57,10.57,0,0,0-5.62,1.46A9,9,0,0,1-402,33.57a8.81,8.81,0,0,1-4.62-1.16V20H-430.8a3.41,3.41,0,0,0-3.41,3.41v51a9.82,9.82,0,0,0,9.81,9.81h34.33a9.82,9.82,0,0,0,9.81-9.81V21.69h13.12a5.55,5.55,0,0,1,5.55,5.55v14a5.55,5.55,0,0,1-5.55,5.55h-7.68v1.7h7.68a7.26,7.26,0,0,0,7.25-7.25v-14A7.26,7.26,0,0,0-367.15,20ZM-419.48,52.5c0-6.45,8.15-10,11.15-11.14v7l-10.83,7.46A18.48,18.48,0,0,1-419.48,52.5Zm11.15-2.08v8.33L-416,64a27.9,27.9,0,0,1-2.74-6.44Zm0,10.4v13a47.07,47.07,0,0,1-6.8-8.27Zm1.7,0,6.8,4.68a47.18,47.18,0,0,1-6.8,8.27v-13Zm7.68,3.22-7.68-5.29V50.42l10.43,7.17A27.92,27.92,0,0,1-398.95,64Zm3.15-8.23-10.83-7.45v-7c3,1.1,11.15,4.7,11.15,11.14A18.46,18.46,0,0,1-395.8,55.81Zm-35-34.12h22.46v9.9a10.37,10.37,0,0,0-4.13-.74,10.56,10.56,0,0,0-5.62,1.46,9,9,0,0,1-4.83,1.27,9,9,0,0,1-4.83-1.27,10.49,10.49,0,0,0-4.77-1.43V23.4A1.71,1.71,0,0,1-430.8,21.69Zm40.73,60.85H-424.4a8.11,8.11,0,0,1-8.1-8.1V32.58a9,9,0,0,1,4,1.24,10.56,10.56,0,0,0,5.62,1.46,10.56,10.56,0,0,0,5.62-1.46,9,9,0,0,1,4.83-1.27,8.61,8.61,0,0,1,4.13.91v6.09c-2.66.89-12.86,4.84-12.85,13,0,12.72,12.62,23.41,13.16,23.86l0.55,0.46,0.55-.46c0.54-.45,13.15-11.14,13.16-23.86,0-8.12-10.19-12.07-12.85-13V34.32a10.19,10.19,0,0,0,4.62,1,10.57,10.57,0,0,0,5.62-1.46,9,9,0,0,1,4.83-1.27,9,9,0,0,1,4.83,1.27A10.5,10.5,0,0,0-382,35.25V74.43A8.11,8.11,0,0,1-390.07,82.54Z" transform="translate(438.55 5.89)"/><rect class="cls-1" x="16.07" y="6.68" width="1.7" height="14.64"/><rect class="cls-1" x="44.36" y="6.68" width="1.7" height="14.64"/><rect class="cls-1" x="30.21" width="1.7" height="21.32"/><rect class="cls-1" y="95.5" width="64.26" height="1.7"/><path class="cls-1" d="M-150.18,15.91a32.9,32.9,0,0,0-17.35-6.58V3h-1.74V9.33a32.94,32.94,0,0,0-17.36,6.58,25.87,25.87,0,0,0-10.73,21.22c0,14.32,7.74,27.54,14.23,36.11,1.28,1.7,2.57,3.29,3.83,4.75,0.46,0.54.91,1.07,1.36,1.57,0.69,0.76,1.35,1.5,2,2.17s1,1,1.45,1.52c3.23,3.32,5.5,5.23,5.54,5.26L-168.4,89l0.56-.46s2.31-1.95,5.54-5.26c0.46-.48.95-1,1.45-1.52s1.3-1.41,2-2.17c0.44-.51.9-1,1.35-1.57,1.26-1.46,2.55-3.05,3.84-4.75,6.48-8.57,14.21-21.79,14.22-36.11A25.86,25.86,0,0,0-150.18,15.91Zm-17.35,6.64a17.34,17.34,0,0,1,16.45,17.3,17.4,17.4,0,0,1-.91,5.56l-15.53-10.68V22.55Zm0,14.29,14.86,10.23a17.32,17.32,0,0,1-14.86,10.08V36.84Zm-1.74-2.12L-184.8,45.41a17.22,17.22,0,0,1-.92-5.56,17.35,17.35,0,0,1,16.45-17.3V34.72Zm-26.35,2.4a24.18,24.18,0,0,1,10-19.83,31.15,31.15,0,0,1,16.3-6.23v9.74a19.09,19.09,0,0,0-18.19,19,18.78,18.78,0,0,0,1.17,6.58l-6.91,4.76A44.87,44.87,0,0,1-195.61,37.13Zm3,15.77,4.65-3.2,2.35-1.62,1.46-1,3.76-2.59,11.11-7.64V57.15a17.23,17.23,0,0,1-11.63-5.33l-1.17,1.3a19,19,0,0,0,12.8,5.78v5.23l-12.18,8.38A77.19,77.19,0,0,1-192.6,52.9Zm23.33,33c-0.76-.7-1.79-1.67-3-2.87l-1.54-1.58c-0.61-.65-1.26-1.34-1.93-2.08-0.46-.51-0.94-1-1.41-1.59-1.05-1.2-2.14-2.5-3.24-3.88l11.11-7.65V85.9Zm9.65-8.12L-161,79.37c-0.68.74-1.33,1.43-2,2.08S-164,82.54-164.53,83c-1.21,1.21-2.24,2.18-3,2.87V66.25l11.13,7.67C-157.49,75.29-158.58,76.59-159.61,77.78Zm4.58-5.63-0.29.38-12.2-8.4V58.9A19.12,19.12,0,0,0-151.2,48.08l7,4.81A76.67,76.67,0,0,1-155,72.15Zm4.53-25.72a18.94,18.94,0,0,0,1.17-6.58,19.09,19.09,0,0,0-18.19-19V11.07a31.13,31.13,0,0,1,16.3,6.23,24.16,24.16,0,0,1,10,19.83,44.69,44.69,0,0,1-2.42,14.06Z" transform="translate(438.55 5.89)"/><path class="cls-1" d="M-151.81,86.69c0,3.62-8.34,5.51-16.59,5.51S-185,90.31-185,86.69c0-2.48,3.92-4.15,9-5,0.51,0.54,1,1,1.45,1.52-5.5.7-8.79,2.27-8.79,3.44,0,1.55,5.8,3.8,14.88,3.8s14.88-2.25,14.88-3.8c0-1.17-3.28-2.74-8.78-3.44,0.46-.48.95-1,1.45-1.52C-155.72,82.54-151.81,84.22-151.81,86.69Z" transform="translate(438.55 5.89)"/><path class="cls-1" d="M-136.57,87.43c0,6.51-16.4,10-31.83,10s-31.83-3.51-31.83-10c0-5,9.55-8.19,20.93-9.44,0.46,0.54.91,1.07,1.36,1.57-12.49,1.21-20.58,4.68-20.58,7.87,0,3.93,12.37,8.32,30.12,8.32s30.12-4.38,30.12-8.32c0-3.19-8.09-6.66-20.58-7.87,0.44-.51.9-1,1.35-1.57C-146.12,79.24-136.57,82.46-136.57,87.43Z" transform="translate(438.55 5.89)"/><path class="cls-1" d="M78.39,74.23H87.7l3.4-41-17,11.21C74,43.92,73.79,43.45,73.61,43c-7.24-17.5-22.84-30-23-30.16L50,12.39l-0.59.47C49.27,13,33.67,25.51,26.43,43c-0.13.32-.26,0.64-0.38,1L9,32.35l2.92,41.87h9.77c-0.05,1.65-.08,3.24-0.08,4.76H11.65v1.9h9.91c0,2.68.12,5.05,0.28,6.95l0.94-.08,0.94-.08c-0.15-1.86-.25-4.18-0.28-6.79H76.58c0,2.61-.12,4.94-0.28,6.79l0.94,0.08,0.94,0.08c0.16-1.9.25-4.27,0.28-6.95H88V79H78.48C78.47,77.47,78.44,75.87,78.39,74.23Zm10.5-37.3L86,72.33H78.33c-0.37-8.93-1.45-19-3.58-26.06ZM51,15.65A92.92,92.92,0,0,1,63.19,28.9L51,37.3V15.65Zm0,24,13.34-9.18a66.93,66.93,0,0,1,7.55,13.31c0.23,0.55.44,1.13,0.65,1.74L51,59.7V39.61ZM51,62L73.1,47.36c2,6.86,3,16.42,3.34,25H51V62ZM26.28,72.33H23.6C24,63.62,25,53.86,27.06,47l22,15V72.33H26.28ZM49.07,15.65V37.3L36.86,28.9A92.92,92.92,0,0,1,49.07,15.65ZM28.18,43.74a66.93,66.93,0,0,1,7.55-13.31L49.07,39.6V59.67L27.67,45.09C27.84,44.63,28,44.17,28.18,43.74ZM13.64,72.33L11.12,36.12l14.3,9.74c-2.21,7.1-3.33,17.37-3.71,26.47H13.64ZM23.46,79c0-1.52,0-3.11.08-4.76h53c0.05,1.65.08,3.24,0.08,4.76H23.46Z" transform="translate(438.55 5.89)"/></svg>