<svg id="Calque_1" data-name="Calque 1" xmlns="http://www.w3.org/2000/svg" viewBox="0 0 66.96 96.72"><defs><style>.cls-1{fill:#2ab7c5;}</style></defs><title>icon-interac</title><path class="cls-1" d="M35.31,41.14c6.54-12.23,23.49-17.33,28-18.49C64.84,27,70,44,63.52,56.2a14.35,14.35,0,0,1-1.73,2.3l1.82,1.91a11.56,11.56,0,0,0,2.26-3c8.1-15.21-.14-36-0.5-36.86l-0.42-1-1.09.23C62.94,20,41.09,24.7,33,39.89c-3,5.59-1.07,11.68,1.59,16.37l1.7-2.47C34.32,49.55,33,45.39,35.31,41.14Z" transform="translate(-22.39 -2.03)"/><path class="cls-1" d="M65.9,67.95l-3-1.62a2.61,2.61,0,0,0-.44-0.19,3.05,3.05,0,0,0-1.5-3.45L58,61.15A3.41,3.41,0,0,0,57.67,61l0.13-.24a3,3,0,0,0-1.26-4.1l-3.9-2.08a3.26,3.26,0,0,0-.35-0.17l6.15-11.53a3,3,0,0,0-1.25-4.11l-4-2.15A3,3,0,0,0,49,37.86L34.89,64.38l-2.82-5.16a4.78,4.78,0,0,0-5.27-2.35l-0.74.18a4.74,4.74,0,0,0-3.63,5.25l3.3,25.45,2.64-.28L25.06,62a2.12,2.12,0,0,1,1.61-2.32l0.74-.18a2.14,2.14,0,0,1,2.33,1L34.92,70,51.38,39.11A0.39,0.39,0,0,1,51.91,39l4,2.15a0.4,0.4,0,0,1,.16.53L45.21,62l2.34,1.25,3.32-6.23a0.37,0.37,0,0,1,.52-0.15L55.29,59a0.39,0.39,0,0,1,.16.53L54,62.19a1.63,1.63,0,0,0-.14.23l-2,3.78,2.35,1.24,2-3.85a0.39,0.39,0,0,1,.46-0.07L59.67,65a0.38,0.38,0,0,1,.17.51L57,70.86l2.34,1.25,1.75-3.28a0.4,0.4,0,0,1,.53-0.16l3,1.62a0.4,0.4,0,0,1,.16.53l-4,7.56a38.27,38.27,0,0,1-6.86,9.19L44.42,96.9l1.93,1.85,9.43-9.3a40.51,40.51,0,0,0,7.33-9.83l4-7.56A3,3,0,0,0,65.9,67.95Z" transform="translate(-22.39 -2.03)"/><rect class="cls-1" x="63.01" y="7.91" width="14.91" height="2.65" transform="translate(6.75 65.02) rotate(-61.91)"/><rect class="cls-1" x="78.69" y="45" width="2.65" height="14.91" transform="translate(-26.33 96.32) rotate(-61.91)"/><rect class="cls-1" x="74.39" y="29.2" width="14.91" height="2.65" transform="translate(-27.73 23.1) rotate(-16.91)"/><rect class="cls-1" x="28.35" y="18.14" width="2.65" height="14.91" transform="translate(-29.27 37.7) rotate(-61.91)"/><rect class="cls-1" x="45.56" y="4.42" width="2.65" height="14.91" transform="translate(-23.82 12.12) rotate(-16.91)"/></svg>