<svg id="Calque_1" data-name="Calque 1" xmlns="http://www.w3.org/2000/svg" viewBox="0 0 77.5 66.64"><defs><style>.cls-1{fill:#2ab7c5;}</style></defs><title>icon-fonctions</title><path class="cls-1" d="M68.7,47.19H65.24a3.27,3.27,0,0,0-.54,0,3,3,0,0,0-2.92-2.35H58.47a4.53,4.53,0,0,0-.46,0V29.44a3,3,0,0,0-3-3H50.54a3,3,0,0,0-3,3v2.22l-0.45,0H42.47a3,3,0,0,0-3,3V58.79l-5-3.31a4.73,4.73,0,0,0-5.72.4l-0.58.51a4.72,4.72,0,0,0-.72,6.29l15,21,2.14-1.35L29.46,61.22a2.17,2.17,0,0,1,.33-2.91l0.58-.52A2.21,2.21,0,0,1,33,57.61l9,5.89V34.62a0.44,0.44,0,0,1,.45-0.45h4.61a0.44,0.44,0,0,1,.45.45V51.06h2.55V29.44A0.47,0.47,0,0,1,50.54,29H55a0.45,0.45,0,0,1,.45.46V51.91H58v-4a0.45,0.45,0,0,1,.46-0.45h3.31a0.45,0.45,0,0,1,.45.45v6.05h2.55V50.19a0.47,0.47,0,0,1,.46-0.46H68.7a0.46,0.46,0,0,1,.45.46v8.64a38.41,38.41,0,0,1-1.74,11.45L63.52,82.8l2.36,0.93,4-12.69A41.11,41.11,0,0,0,71.7,58.83V50.19A3,3,0,0,0,68.7,47.19Z" transform="translate(-11.25 -17.1)"/><polygon class="cls-1" points="67.15 0 65.33 1.78 72.72 9.34 56.29 9.34 56.29 11.89 72.86 11.89 65.3 20.13 67.17 21.85 77.5 10.59 67.15 0"/><polygon class="cls-1" points="21.2 11.89 21.2 9.34 4.77 9.34 12.17 1.78 10.35 0 0 10.59 10.32 21.85 12.2 20.13 4.64 11.89 21.2 11.89"/></svg>