<svg id="Calque_1" data-name="Calque 1" xmlns="http://www.w3.org/2000/svg" viewBox="0 0 74.58 73.96"><defs><style>.cls-1{fill:#2ab7c5;}</style></defs><title>icon-facilite</title><polygon class="cls-1" points="11.94 50.39 11.94 25.52 9.28 25.52 9.28 50.26 1.86 43.01 0 44.91 10.58 55.26 21.83 44.94 20.03 42.98 11.94 50.39"/><path class="cls-1" d="M46.69,50.78l0.91-2.56A17.74,17.74,0,1,1,72,43.38l2.18,1.53A20.41,20.41,0,1,0,46.69,50.78Z" transform="translate(-9.53 -13.02)"/><path class="cls-1" d="M81.07,50.49H77.62c-0.16,0-.33,0-0.48,0a3.05,3.05,0,0,0-3-2.32H70.49V48a3,3,0,0,0-3.06-3.06H63a1.64,1.64,0,0,0-.39,0V31.82a3.06,3.06,0,0,0-3.06-3.06H55a3.06,3.06,0,0,0-3.06,3.06V62L47,58.74a4.8,4.8,0,0,0-5.78.4l-0.58.51A4.78,4.78,0,0,0,39.91,66L54.85,87,57,85.42l-14.93-21a2.1,2.1,0,0,1,.31-2.8L43,61.15A2.12,2.12,0,0,1,45.53,61l9,5.95V31.82A0.39,0.39,0,0,1,55,31.43h4.58a0.39,0.39,0,0,1,.39.39V55h2.67V48A0.38,0.38,0,0,1,63,47.56h4.43a0.38,0.38,0,0,1,.39.39v3c0,0.09,0,.18,0,0.27l0,4.28h2.67V51.15a0.39,0.39,0,0,1,.37-0.28h3.3a0.38,0.38,0,0,1,.39.37v6h2.67V53.54a0.39,0.39,0,0,1,.39-0.39h3.45a0.39,0.39,0,0,1,.39.39v8.6a38,38,0,0,1-1.74,11.37L75.87,85.82,78.31,87l4-12.67a40.8,40.8,0,0,0,1.84-12.16v-8.6A3,3,0,0,0,81.07,50.49Z" transform="translate(-9.53 -13.02)"/></svg>