<svg id="Calque_1" data-name="Calque 1" xmlns="http://www.w3.org/2000/svg" xmlns:xlink="http://www.w3.org/1999/xlink" viewBox="0 0 600 600"><defs><style>.cls-1{fill:#3d3d3d;}.cls-2{fill:#808081;}.cls-3{fill:url(#Dégradé_sans_nom_21);}</style><linearGradient id="Dégradé_sans_nom_21" x1="180.73" y1="194.44" x2="424.61" y2="438.32" gradientUnits="userSpaceOnUse"><stop offset="0" stop-color="#09b9e6"/><stop offset="0.19" stop-color="#12b8d9"/><stop offset="0.54" stop-color="#2ab7b6"/><stop offset="1" stop-color="#51b57f"/></linearGradient></defs><title>logo_minimal</title><polygon class="cls-1" points="161.28 398.05 289.8 349.94 161.28 301.87 161.28 398.05"/><path class="cls-1" d="M0,0V600H600V0H0ZM562.34,562.34H37.66V37.66H562.34V562.34Z"/><polygon class="cls-1" points="385.99 211.95 308.62 99.3 308.87 238.69 351.27 265.33 385.99 211.95"/><polygon class="cls-1" points="355.51 278.87 354.57 280.31 353.11 279.39 308.89 251.62 309.05 342.74 402.83 307.66 405.21 306.77 405.19 309.31 405.12 317.24 405.11 318.44 403.99 318.87 309.07 354.4 309.31 490.45 443.1 402.98 443.1 295.1 392.69 221.71 355.51 278.87"/><polygon class="cls-1" points="243.13 210.29 248.94 201.03 297.92 231.82 297.69 99.06 164.31 291.33 298.11 341.38 297.94 244.74 243.13 210.29"/><path class="cls-1" d="M560.55,39.45H39.45v521.1h521.1V39.45ZM454,292.25V408.89l-0.79.52L308.88,503.79v35.7H298.35l-0.21-181L167.88,407.26l88.76,60,0.77,0.52v0.93l0,8.84,0,3.26-2.7-1.82L151.13,409.42l-0.77-.52V292.28l0.31-.45L301.7,74.1,303.15,72l1.43,2.09L453.72,291.26l0.31,0.45v0.54Z"/><path class="cls-2" d="M37.66,562.34H562.34V37.66H37.66V562.34ZM39.45,39.45h521.1v521.1H39.45V39.45Z"/><path class="cls-1" d="M304.58,74.1L303.15,72,301.7,74.1l-151,217.73-0.31.45V408.9l0.77,0.52L254.64,479l2.7,1.82,0-3.26,0-8.84v-0.93l-0.77-.52-88.76-60,130.26-48.77,0.21,181h10.54v-35.7l144.36-94.38,0.79-.52V291.71l-0.31-.45Zm-143.29,324V301.87L289.8,349.94Zm3-106.72L297.69,99.06l0.23,132.76-49-30.79-5.81,9.26,54.82,34.45,0.17,96.64Zm144.55-52.63L308.62,99.3,386,212l-34.72,53.38ZM443.1,403L309.31,490.45,309.07,354.4,404,318.87l1.12-.42v-1.2l0.07-7.94,0-2.54-2.38.89L309,342.74l-0.16-91.12,44.22,27.78,1.46,0.91,0.94-1.44,37.19-57.16L443.1,295.1V403Z"/><path class="cls-3" d="M304.58,74.1L303.15,72,301.7,74.1l-151,217.73-0.31.45V408.9l0.77,0.52L254.64,479l2.7,1.82,0-3.26,0-8.84v-0.93l-0.77-.52-88.76-60,130.26-48.77,0.21,181h10.54v-35.7l144.36-94.38,0.79-.52V291.71l-0.31-.45Zm-143.29,324V301.87L289.8,349.94Zm3-106.72L297.69,99.06l0.23,132.76-49-30.79-5.81,9.26,54.82,34.45,0.17,96.64Zm144.55-52.63L308.62,99.3,386,212l-34.72,53.38ZM443.1,403L309.31,490.45,309.07,354.4,404,318.87l1.12-.42v-1.2l0.07-7.94,0-2.54-2.38.89L309,342.74l-0.16-91.12,44.22,27.78,1.46,0.91,0.94-1.44,37.19-57.16L443.1,295.1V403Z"/></svg>